<svg width="160" height="160" viewBox="0 0 160 160" fill="none" xmlns="http://www.w3.org/2000/svg">
<rect width="160" height="160" fill="white" style="mix-blend-mode:multiply"/>
<path d="M146.8 78.475V61.53C149.675 60.735 151.8 58.125 151.8 55.005C151.8 51.255 148.75 48.205 145 48.205C144.045 48.205 143.14 48.405 142.315 48.76L130.49 33.98C131.305 32.86 131.8 31.49 131.8 30C131.8 26.25 128.75 23.2 125 23.2C122.995 23.2 121.21 24.085 119.965 25.47L101.67 16.32C101.755 15.895 101.8 15.455 101.8 15C101.8 11.25 98.75 8.19995 95 8.19995C91.875 8.19995 89.265 10.325 88.47 13.2H66.525C65.73 10.325 63.12 8.19995 60 8.19995C56.25 8.19995 53.2 11.25 53.2 15C53.2 15.455 53.25 15.895 53.335 16.32L40.035 22.97C38.79 21.59 37.005 20.7 35 20.7C31.25 20.7 28.2 23.75 28.2 27.5C28.2 28.865 28.61 30.13 29.305 31.195L17.99 43.925C17.085 43.475 16.08 43.2 15 43.2C11.25 43.2 8.20001 46.25 8.20001 50C8.20001 53.125 10.325 55.73 13.2 56.525V73.47C10.325 74.265 8.20001 76.875 8.20001 79.995C8.20001 83.745 11.25 86.795 15 86.795C17.73 86.795 20.07 85.17 21.155 82.84L38.275 85.695C38.63 89.12 41.49 91.8 45 91.8C45.455 91.8 45.895 91.75 46.32 91.665L50.47 99.96C49.09 101.21 48.2 102.995 48.2 105C48.2 108.75 51.25 111.8 55 111.8C57.35 111.8 59.425 110.6 60.65 108.78L78.24 114.645C78.23 114.765 78.2 114.88 78.2 115C78.2 118.125 80.325 120.735 83.2 121.53V138.47C80.325 139.265 78.2 141.875 78.2 145C78.2 148.75 81.25 151.8 85 151.8C88.75 151.8 91.8 148.75 91.8 145C91.8 141.88 89.675 139.265 86.8 138.47V121.525C89.675 120.73 91.8 118.12 91.8 114.995C91.8 112.735 90.68 110.745 88.98 109.505L92.39 100.405L108.205 104.925C108.205 104.95 108.2 104.975 108.2 105C108.2 108.12 110.325 110.735 113.2 111.53V138.475C110.325 139.27 108.2 141.88 108.2 145.005C108.2 148.755 111.25 151.805 115 151.805C118.75 151.805 121.8 148.755 121.8 145.005C121.8 141.885 119.675 139.27 116.8 138.475V111.53C119.675 110.735 121.8 108.125 121.8 105C121.8 104.255 121.65 103.55 121.43 102.88L140.57 90.115C141.765 91.155 143.3 91.8 145 91.8C148.75 91.8 151.8 88.75 151.8 85C151.8 81.88 149.675 79.27 146.8 78.475ZM106.77 74.66C106.76 74.435 106.735 74.21 106.7 73.99L121.945 67.215L138.51 81.71L106.77 74.66ZM100 78.2C98.235 78.2 96.8 76.765 96.8 75C96.8 73.235 98.235 71.8 100 71.8C101.765 71.8 103.2 73.235 103.2 75C103.2 76.765 101.765 78.2 100 78.2ZM100 68.2C96.25 68.2 93.2 71.25 93.2 75C93.2 77.26 94.32 79.25 96.02 80.485L90.19 96.035L80.68 93.32L73.355 67.69L100.67 48.91L103.81 51.355L118.95 64.605L105.225 70.705C103.98 69.19 102.115 68.2 100 68.2ZM45.655 78.265L40.61 49.25L58.67 47.445V47.425C59.65 49.975 62.105 51.8 65 51.8C65.025 51.8 65.045 51.795 65.07 51.795L69.185 66.19L49.355 79.82C48.33 78.96 47.06 78.405 45.655 78.265ZM65 48.2C63.235 48.2 61.8 46.765 61.8 45C61.8 43.235 63.235 41.8 65 41.8C66.765 41.8 68.2 43.235 68.2 45C68.2 46.765 66.765 48.2 65 48.2ZM51.4 82.785L70.225 69.84L76.6 92.155L51.79 85.065C51.79 85.04 51.795 85.02 51.795 84.995C51.8 84.22 51.64 83.485 51.4 82.785ZM120.645 35.18C121.83 36.175 123.335 36.8 125 36.8C125.955 36.8 126.86 36.6 127.685 36.245L139.51 51.02C138.695 52.14 138.2 53.51 138.2 55C138.2 55.345 138.25 55.675 138.3 56.005L122.58 62.99L106.105 48.575L103.785 46.77L120.645 35.18ZM141.255 79.33L125.565 65.605L139.77 59.295C140.65 60.36 141.83 61.15 143.2 61.525V78.47C142.505 78.665 141.845 78.945 141.255 79.33ZM148.2 55C148.2 56.765 146.765 58.2 145 58.2C143.235 58.2 141.8 56.765 141.8 55C141.8 53.235 143.235 51.8 145 51.8C146.765 51.8 148.2 53.235 148.2 55ZM125 26.8C126.765 26.8 128.2 28.235 128.2 30C128.2 31.765 126.765 33.2 125 33.2C123.235 33.2 121.8 31.765 121.8 30C121.8 28.235 123.235 26.8 125 26.8ZM95 11.8C96.765 11.8 98.2 13.235 98.2 15C98.2 16.765 96.765 18.2 95 18.2C93.235 18.2 91.8 16.765 91.8 15C91.8 13.235 93.235 11.8 95 11.8ZM95 21.8C97.005 21.8 98.79 20.915 100.035 19.53L118.33 28.68C118.245 29.105 118.2 29.545 118.2 30C118.2 30.78 118.36 31.515 118.6 32.215L100.8 44.455L66.28 17.605C66.385 17.35 66.455 17.075 66.53 16.8H88.475C89.265 19.675 91.875 21.8 95 21.8ZM60 11.8C61.765 11.8 63.2 13.235 63.2 15C63.2 16.765 61.765 18.2 60 18.2C58.235 18.2 56.8 16.765 56.8 15C56.8 13.235 58.235 11.8 60 11.8ZM54.965 19.53C56.21 20.91 57.995 21.8 60 21.8C61.52 21.8 62.915 21.28 64.05 20.43L97.69 46.59L72.315 64.035L68.53 50.785C70.48 49.59 71.8 47.455 71.8 45C71.8 41.25 68.75 38.2 65 38.2C61.635 38.2 58.855 40.66 58.315 43.875V43.86L39.99 45.69L37.89 33.63C40.195 32.54 41.8 30.21 41.8 27.5C41.8 27.045 41.75 26.605 41.665 26.18L54.965 19.53ZM21.325 47.555C21.155 47.115 20.95 46.695 20.695 46.305L32.01 33.575C32.725 33.93 33.51 34.15 34.345 34.235L36.4 46.05L21.325 47.555ZM35 24.3C36.765 24.3 38.2 25.735 38.2 27.5C38.2 29.265 36.765 30.7 35 30.7C33.235 30.7 31.8 29.265 31.8 27.5C31.8 25.735 33.235 24.3 35 24.3ZM11.8 50C11.8 48.235 13.235 46.8 15 46.8C16.765 46.8 18.2 48.235 18.2 50C18.2 51.765 16.765 53.2 15 53.2C13.235 53.2 11.8 51.765 11.8 50ZM15 83.2C13.235 83.2 11.8 81.765 11.8 80C11.8 78.235 13.235 76.8 15 76.8C16.765 76.8 18.2 78.235 18.2 80C18.2 81.765 16.765 83.2 15 83.2ZM38.845 82.15L21.725 79.295C21.43 76.49 19.45 74.205 16.795 73.47V56.525C19.31 55.83 21.235 53.745 21.68 51.14L37.015 49.6049L42.105 78.87C40.675 79.55 39.52 80.71 38.845 82.15ZM41.8 85C41.8 83.235 43.235 81.8 45 81.8C46.765 81.8 48.2 83.235 48.2 85C48.2 86.765 46.765 88.2 45 88.2C43.235 88.2 41.8 86.765 41.8 85ZM55 108.2C53.235 108.2 51.8 106.765 51.8 105C51.8 103.235 53.235 101.8 55 101.8C56.765 101.8 58.2 103.235 58.2 105C58.2 106.765 56.765 108.2 55 108.2ZM61.765 105.355C61.77 105.235 61.8 105.12 61.8 105C61.8 101.25 58.75 98.2 55 98.2C54.545 98.2 54.105 98.25 53.68 98.335L49.53 90.04C50.02 89.6 50.44 89.095 50.785 88.53L77.765 96.235L81.475 109.215C80.635 109.73 79.9 110.405 79.35 111.225L61.765 105.355ZM88.2 145C88.2 146.765 86.765 148.2 85 148.2C83.235 148.2 81.8 146.765 81.8 145C81.8 143.235 83.235 141.8 85 141.8C86.765 141.8 88.2 143.235 88.2 145ZM85 118.2C83.235 118.2 81.8 116.765 81.8 115C81.8 113.235 83.235 111.8 85 111.8C86.765 111.8 88.2 113.235 88.2 115C88.2 116.765 86.765 118.2 85 118.2ZM85.605 108.26C85.4 108.24 85.205 108.2 85 108.2C84.975 108.2 84.955 108.205 84.93 108.205L81.84 97.395L88.92 99.415L85.605 108.26ZM93.66 97.03L99.395 81.735C99.6 81.755 99.795 81.795 100 81.795C102.595 81.795 104.835 80.315 105.98 78.17L138.235 85.335C138.265 85.955 138.385 86.55 138.575 87.115L119.435 99.88C118.235 98.845 116.7 98.2 115 98.2C112.545 98.2 110.41 99.52 109.21 101.475L93.66 97.03ZM118.2 145C118.2 146.765 116.765 148.2 115 148.2C113.235 148.2 111.8 146.765 111.8 145C111.8 143.235 113.235 141.8 115 141.8C116.765 141.8 118.2 143.235 118.2 145ZM115 108.2C113.235 108.2 111.8 106.765 111.8 105C111.8 103.235 113.235 101.8 115 101.8C116.765 101.8 118.2 103.235 118.2 105C118.2 106.765 116.765 108.2 115 108.2ZM145 88.2C143.235 88.2 141.8 86.765 141.8 85C141.8 83.235 143.235 81.8 145 81.8C146.765 81.8 148.2 83.235 148.2 85C148.2 86.765 146.765 88.2 145 88.2Z" fill="url(#paint0_linear_84_1265)"/>
<defs>
<linearGradient id="paint0_linear_84_1265" x1="80" y1="8.19995" x2="80" y2="151.805" gradientUnits="userSpaceOnUse">
<stop stop-color="#0840C9"/>
<stop offset="0.0001" stop-color="#2740D5"/>
<stop offset="0.9998" stop-color="#773FF5"/>
<stop offset="0.9999" stop-color="#883FFB"/>
<stop offset="1" stop-color="#883FFB"/>
</linearGradient>
</defs>
</svg>
